<svg width="135" height="41" viewBox="0 0 135 41" fill="none" xmlns="http://www.w3.org/2000/svg">
<mask id="path-1-outside-1_2_1838" maskUnits="userSpaceOnUse" x="54.9" y="12.5" width="77" height="23" fill="black">
<rect fill="white" x="54.9" y="12.5" width="77" height="23"/>
<path d="M56.088 22.912C56.088 22.0192 56.1456 21.1408 56.2608 20.2768C56.3904 19.4128 56.6064 18.5992 56.9088 17.836C57.2112 17.0584 57.6288 16.3744 58.1616 15.784C58.6944 15.1792 59.364 14.7112 60.1704 14.38C60.9912 14.0344 61.9848 13.8616 63.1512 13.8616C63.4536 13.8616 63.7848 13.876 64.1448 13.9048C64.5192 13.9336 64.8216 13.984 65.052 14.056V15.676C64.7928 15.5896 64.4976 15.5248 64.1664 15.4816C63.8496 15.4384 63.5256 15.4168 63.1944 15.4168C62.2008 15.4168 61.3728 15.5824 60.7104 15.9136C60.048 16.2448 59.5224 16.6984 59.1336 17.2744C58.7592 17.8504 58.4856 18.5128 58.3128 19.2616C58.14 20.0104 58.032 20.8096 57.9888 21.6592H58.1184C58.3344 21.3136 58.608 21.004 58.9392 20.7304C59.2704 20.4568 59.6664 20.2408 60.1272 20.0824C60.6024 19.924 61.1496 19.8448 61.7688 19.8448C62.6616 19.8448 63.4392 20.032 64.1016 20.4064C64.7784 20.7664 65.304 21.2992 65.6784 22.0048C66.0528 22.696 66.24 23.5384 66.24 24.532C66.24 25.5976 66.0384 26.5192 65.6352 27.2968C65.232 28.0744 64.6632 28.672 63.9288 29.0896C63.2088 29.5072 62.3448 29.716 61.3368 29.716C60.6024 29.716 59.9184 29.5792 59.2848 29.3056C58.6512 29.032 58.0896 28.6144 57.6 28.0528C57.1248 27.4912 56.7504 26.7856 56.4768 25.936C56.2176 25.072 56.088 24.064 56.088 22.912ZM61.3152 28.1176C62.2224 28.1176 62.9568 27.8296 63.5184 27.2536C64.08 26.6632 64.3608 25.756 64.3608 24.532C64.3608 23.5528 64.1088 22.7752 63.6048 22.1992C63.1152 21.6232 62.3736 21.3352 61.38 21.3352C60.7032 21.3352 60.1128 21.4792 59.6088 21.7672C59.1048 22.0408 58.7088 22.3936 58.4208 22.8256C58.1472 23.2576 58.0104 23.704 58.0104 24.1648C58.0104 24.64 58.0752 25.108 58.2048 25.5688C58.3488 26.0296 58.5576 26.4544 58.8312 26.8432C59.1192 27.232 59.4648 27.5416 59.868 27.772C60.2856 28.0024 60.768 28.1176 61.3152 28.1176ZM72.7258 29.5L68.341 17.9224H70.3714L72.8338 24.748C72.949 25.0648 73.0714 25.4176 73.201 25.8064C73.3306 26.1952 73.4458 26.5696 73.5466 26.9296C73.6474 27.2752 73.7194 27.5704 73.7626 27.8152H73.849C73.9066 27.5704 73.9858 27.268 74.0866 26.908C74.2018 26.548 74.3242 26.1736 74.4538 25.7848C74.5978 25.396 74.7202 25.0504 74.821 24.748L77.2834 17.9224H79.3138L74.9074 29.5H72.7258ZM86.6105 17.728C88.0217 17.728 89.0657 18.0376 89.7425 18.6568C90.4193 19.276 90.7577 20.2624 90.7577 21.616V29.5H89.3753L89.0081 27.8584H88.9217C88.5905 28.276 88.2449 28.6288 87.8849 28.9168C87.5393 29.1904 87.1361 29.392 86.6753 29.5216C86.2289 29.6512 85.6817 29.716 85.0337 29.716C84.3425 29.716 83.7161 29.5936 83.1545 29.3488C82.6073 29.104 82.1753 28.7296 81.8585 28.2256C81.5417 27.7072 81.3833 27.0592 81.3833 26.2816C81.3833 25.1296 81.8369 24.244 82.7441 23.6248C83.6513 22.9912 85.0481 22.6456 86.9345 22.588L88.9001 22.5232V21.832C88.9001 20.8672 88.6913 20.1976 88.2737 19.8232C87.8561 19.4488 87.2657 19.2616 86.5025 19.2616C85.8977 19.2616 85.3217 19.3552 84.7745 19.5424C84.2273 19.7152 83.7161 19.9168 83.2409 20.1472L82.6577 18.7216C83.1617 18.448 83.7593 18.2176 84.4505 18.0304C85.1417 17.8288 85.8617 17.728 86.6105 17.728ZM87.1721 23.9056C85.7321 23.9632 84.7313 24.1936 84.1697 24.5968C83.6225 25 83.3489 25.5688 83.3489 26.3032C83.3489 26.9512 83.5433 27.4264 83.9321 27.7288C84.3353 28.0312 84.8465 28.1824 85.4657 28.1824C86.4449 28.1824 87.2585 27.916 87.9065 27.3832C88.5545 26.836 88.8785 26.0008 88.8785 24.8776V23.8408L87.1721 23.9056ZM97.3143 29.5H95.4135V13.084H97.3143V29.5ZM103.963 29.5H102.062V13.084H103.963V29.5ZM113.182 17.7064C114.176 17.7064 115.025 17.9224 115.731 18.3544C116.451 18.7864 116.998 19.3984 117.373 20.1904C117.761 20.968 117.956 21.8824 117.956 22.9336V24.0784H110.029C110.057 25.3888 110.389 26.3896 111.022 27.0808C111.67 27.7576 112.57 28.096 113.722 28.096C114.457 28.096 115.105 28.0312 115.666 27.9016C116.242 27.7576 116.833 27.556 117.437 27.2968V28.96C116.847 29.2192 116.264 29.4064 115.688 29.5216C115.112 29.6512 114.428 29.716 113.636 29.716C112.541 29.716 111.569 29.4928 110.72 29.0464C109.885 28.6 109.229 27.9376 108.754 27.0592C108.293 26.1664 108.063 25.0792 108.063 23.7976C108.063 22.5304 108.272 21.4432 108.689 20.536C109.121 19.6288 109.719 18.9304 110.482 18.4408C111.26 17.9512 112.16 17.7064 113.182 17.7064ZM113.161 19.2616C112.253 19.2616 111.533 19.5568 111.001 20.1472C110.482 20.7232 110.173 21.5296 110.072 22.5664H115.969C115.969 21.904 115.868 21.328 115.666 20.8384C115.465 20.3488 115.155 19.9672 114.737 19.6936C114.334 19.4056 113.809 19.2616 113.161 19.2616ZM119.747 17.9224H121.777L124.283 24.5104C124.427 24.8992 124.557 25.2736 124.672 25.6336C124.801 25.9936 124.917 26.3464 125.017 26.692C125.118 27.0232 125.197 27.3472 125.255 27.664H125.341C125.428 27.304 125.565 26.836 125.752 26.26C125.939 25.6696 126.133 25.0792 126.335 24.4888L128.689 17.9224H130.741L125.752 31.0984C125.478 31.8184 125.154 32.4448 124.78 32.9776C124.42 33.5248 123.973 33.9424 123.441 34.2304C122.922 34.5328 122.289 34.684 121.54 34.684C121.194 34.684 120.892 34.6624 120.633 34.6192C120.373 34.5904 120.15 34.5544 119.963 34.5112V32.9992C120.121 33.028 120.309 33.0568 120.525 33.0856C120.755 33.1144 120.993 33.1288 121.237 33.1288C121.684 33.1288 122.065 33.0424 122.382 32.8696C122.713 32.7112 122.994 32.4736 123.225 32.1568C123.455 31.8544 123.649 31.4944 123.808 31.0768L124.413 29.5432L119.747 17.9224Z"/>
</mask>
<path d="M56.088 22.912C56.088 22.0192 56.1456 21.1408 56.2608 20.2768C56.3904 19.4128 56.6064 18.5992 56.9088 17.836C57.2112 17.0584 57.6288 16.3744 58.1616 15.784C58.6944 15.1792 59.364 14.7112 60.1704 14.38C60.9912 14.0344 61.9848 13.8616 63.1512 13.8616C63.4536 13.8616 63.7848 13.876 64.1448 13.9048C64.5192 13.9336 64.8216 13.984 65.052 14.056V15.676C64.7928 15.5896 64.4976 15.5248 64.1664 15.4816C63.8496 15.4384 63.5256 15.4168 63.1944 15.4168C62.2008 15.4168 61.3728 15.5824 60.7104 15.9136C60.048 16.2448 59.5224 16.6984 59.1336 17.2744C58.7592 17.8504 58.4856 18.5128 58.3128 19.2616C58.14 20.0104 58.032 20.8096 57.9888 21.6592H58.1184C58.3344 21.3136 58.608 21.004 58.9392 20.7304C59.2704 20.4568 59.6664 20.2408 60.1272 20.0824C60.6024 19.924 61.1496 19.8448 61.7688 19.8448C62.6616 19.8448 63.4392 20.032 64.1016 20.4064C64.7784 20.7664 65.304 21.2992 65.6784 22.0048C66.0528 22.696 66.24 23.5384 66.24 24.532C66.24 25.5976 66.0384 26.5192 65.6352 27.2968C65.232 28.0744 64.6632 28.672 63.9288 29.0896C63.2088 29.5072 62.3448 29.716 61.3368 29.716C60.6024 29.716 59.9184 29.5792 59.2848 29.3056C58.6512 29.032 58.0896 28.6144 57.6 28.0528C57.1248 27.4912 56.7504 26.7856 56.4768 25.936C56.2176 25.072 56.088 24.064 56.088 22.912ZM61.3152 28.1176C62.2224 28.1176 62.9568 27.8296 63.5184 27.2536C64.08 26.6632 64.3608 25.756 64.3608 24.532C64.3608 23.5528 64.1088 22.7752 63.6048 22.1992C63.1152 21.6232 62.3736 21.3352 61.38 21.3352C60.7032 21.3352 60.1128 21.4792 59.6088 21.7672C59.1048 22.0408 58.7088 22.3936 58.4208 22.8256C58.1472 23.2576 58.0104 23.704 58.0104 24.1648C58.0104 24.64 58.0752 25.108 58.2048 25.5688C58.3488 26.0296 58.5576 26.4544 58.8312 26.8432C59.1192 27.232 59.4648 27.5416 59.868 27.772C60.2856 28.0024 60.768 28.1176 61.3152 28.1176ZM72.7258 29.5L68.341 17.9224H70.3714L72.8338 24.748C72.949 25.0648 73.0714 25.4176 73.201 25.8064C73.3306 26.1952 73.4458 26.5696 73.5466 26.9296C73.6474 27.2752 73.7194 27.5704 73.7626 27.8152H73.849C73.9066 27.5704 73.9858 27.268 74.0866 26.908C74.2018 26.548 74.3242 26.1736 74.4538 25.7848C74.5978 25.396 74.7202 25.0504 74.821 24.748L77.2834 17.9224H79.3138L74.9074 29.5H72.7258ZM86.6105 17.728C88.0217 17.728 89.0657 18.0376 89.7425 18.6568C90.4193 19.276 90.7577 20.2624 90.7577 21.616V29.5H89.3753L89.0081 27.8584H88.9217C88.5905 28.276 88.2449 28.6288 87.8849 28.9168C87.5393 29.1904 87.1361 29.392 86.6753 29.5216C86.2289 29.6512 85.6817 29.716 85.0337 29.716C84.3425 29.716 83.7161 29.5936 83.1545 29.3488C82.6073 29.104 82.1753 28.7296 81.8585 28.2256C81.5417 27.7072 81.3833 27.0592 81.3833 26.2816C81.3833 25.1296 81.8369 24.244 82.7441 23.6248C83.6513 22.9912 85.0481 22.6456 86.9345 22.588L88.9001 22.5232V21.832C88.9001 20.8672 88.6913 20.1976 88.2737 19.8232C87.8561 19.4488 87.2657 19.2616 86.5025 19.2616C85.8977 19.2616 85.3217 19.3552 84.7745 19.5424C84.2273 19.7152 83.7161 19.9168 83.2409 20.1472L82.6577 18.7216C83.1617 18.448 83.7593 18.2176 84.4505 18.0304C85.1417 17.8288 85.8617 17.728 86.6105 17.728ZM87.1721 23.9056C85.7321 23.9632 84.7313 24.1936 84.1697 24.5968C83.6225 25 83.3489 25.5688 83.3489 26.3032C83.3489 26.9512 83.5433 27.4264 83.9321 27.7288C84.3353 28.0312 84.8465 28.1824 85.4657 28.1824C86.4449 28.1824 87.2585 27.916 87.9065 27.3832C88.5545 26.836 88.8785 26.0008 88.8785 24.8776V23.8408L87.1721 23.9056ZM97.3143 29.5H95.4135V13.084H97.3143V29.5ZM103.963 29.5H102.062V13.084H103.963V29.5ZM113.182 17.7064C114.176 17.7064 115.025 17.9224 115.731 18.3544C116.451 18.7864 116.998 19.3984 117.373 20.1904C117.761 20.968 117.956 21.8824 117.956 22.9336V24.0784H110.029C110.057 25.3888 110.389 26.3896 111.022 27.0808C111.67 27.7576 112.57 28.096 113.722 28.096C114.457 28.096 115.105 28.0312 115.666 27.9016C116.242 27.7576 116.833 27.556 117.437 27.2968V28.96C116.847 29.2192 116.264 29.4064 115.688 29.5216C115.112 29.6512 114.428 29.716 113.636 29.716C112.541 29.716 111.569 29.4928 110.72 29.0464C109.885 28.6 109.229 27.9376 108.754 27.0592C108.293 26.1664 108.063 25.0792 108.063 23.7976C108.063 22.5304 108.272 21.4432 108.689 20.536C109.121 19.6288 109.719 18.9304 110.482 18.4408C111.26 17.9512 112.16 17.7064 113.182 17.7064ZM113.161 19.2616C112.253 19.2616 111.533 19.5568 111.001 20.1472C110.482 20.7232 110.173 21.5296 110.072 22.5664H115.969C115.969 21.904 115.868 21.328 115.666 20.8384C115.465 20.3488 115.155 19.9672 114.737 19.6936C114.334 19.4056 113.809 19.2616 113.161 19.2616ZM119.747 17.9224H121.777L124.283 24.5104C124.427 24.8992 124.557 25.2736 124.672 25.6336C124.801 25.9936 124.917 26.3464 125.017 26.692C125.118 27.0232 125.197 27.3472 125.255 27.664H125.341C125.428 27.304 125.565 26.836 125.752 26.26C125.939 25.6696 126.133 25.0792 126.335 24.4888L128.689 17.9224H130.741L125.752 31.0984C125.478 31.8184 125.154 32.4448 124.78 32.9776C124.42 33.5248 123.973 33.9424 123.441 34.2304C122.922 34.5328 122.289 34.684 121.54 34.684C121.194 34.684 120.892 34.6624 120.633 34.6192C120.373 34.5904 120.15 34.5544 119.963 34.5112V32.9992C120.121 33.028 120.309 33.0568 120.525 33.0856C120.755 33.1144 120.993 33.1288 121.237 33.1288C121.684 33.1288 122.065 33.0424 122.382 32.8696C122.713 32.7112 122.994 32.4736 123.225 32.1568C123.455 31.8544 123.649 31.4944 123.808 31.0768L124.413 29.5432L119.747 17.9224Z" fill="#E1F4FF"/>
<path d="M56.2608 20.2768L55.7267 20.1967L55.7256 20.2054L56.2608 20.2768ZM56.9088 17.836L57.4109 18.0349L57.4121 18.0317L56.9088 17.836ZM58.1616 15.784L58.5625 16.1458L58.5668 16.141L58.1616 15.784ZM60.1704 14.38L60.3756 14.8795L60.38 14.8777L60.1704 14.38ZM64.1448 13.9048L64.1018 14.4431L64.1034 14.4432L64.1448 13.9048ZM65.052 14.056H65.592V13.659L65.2131 13.5406L65.052 14.056ZM65.052 15.676L64.8813 16.1883L65.592 16.4252V15.676H65.052ZM64.1664 15.4816L64.0935 16.0167L64.0966 16.0171L64.1664 15.4816ZM60.7104 15.9136L60.9519 16.3966L60.7104 15.9136ZM59.1336 17.2744L58.686 16.9722L58.6809 16.9801L59.1336 17.2744ZM58.3128 19.2616L57.7867 19.1402L58.3128 19.2616ZM57.9888 21.6592L57.4495 21.6318L57.4207 22.1992H57.9888V21.6592ZM58.1184 21.6592V22.1992H58.4177L58.5763 21.9454L58.1184 21.6592ZM60.1272 20.0824L59.9565 19.5701L59.9517 19.5717L60.1272 20.0824ZM64.1016 20.4064L63.8358 20.8767L63.848 20.8832L64.1016 20.4064ZM65.6784 22.0048L65.2014 22.2579L65.2036 22.262L65.6784 22.0048ZM65.6352 27.2968L65.1558 27.0482V27.0482L65.6352 27.2968ZM63.9288 29.0896L63.6619 28.6202L63.6579 28.6225L63.9288 29.0896ZM59.2848 29.3056L59.4989 28.8098L59.2848 29.3056ZM57.6 28.0528L57.1878 28.4016L57.193 28.4077L57.6 28.0528ZM56.4768 25.936L55.9595 26.0912L55.9628 26.1015L56.4768 25.936ZM63.5184 27.2536L63.9051 27.6306L63.9097 27.6258L63.5184 27.2536ZM63.6048 22.1992L63.1933 22.549L63.1984 22.5548L63.6048 22.1992ZM59.6088 21.7672L59.8665 22.2419L59.8767 22.2361L59.6088 21.7672ZM58.4208 22.8256L57.9714 22.526L57.9646 22.5367L58.4208 22.8256ZM58.2048 25.5688L57.685 25.715L57.6871 25.7225L57.6894 25.7299L58.2048 25.5688ZM58.8312 26.8432L58.3895 27.1541L58.3973 27.1646L58.8312 26.8432ZM59.868 27.772L59.6001 28.2409L59.6072 28.2448L59.868 27.772ZM56.628 22.912C56.628 22.0425 56.6841 21.1879 56.7961 20.3482L55.7256 20.2054C55.6071 21.0937 55.548 21.9959 55.548 22.912H56.628ZM56.7948 20.3569C56.9187 19.531 57.1245 18.7575 57.4109 18.0349L56.4068 17.6371C56.0883 18.4409 55.8621 19.2946 55.7268 20.1967L56.7948 20.3569ZM57.4121 18.0317C57.6919 17.3122 58.0758 16.6851 58.5625 16.1458L57.7607 15.4222C57.1819 16.0637 56.7305 16.8046 56.4055 17.6403L57.4121 18.0317ZM58.5668 16.141C59.0404 15.6034 59.6395 15.1818 60.3756 14.8795L59.9653 13.8805C59.0885 14.2406 58.3485 14.755 57.7564 15.427L58.5668 16.141ZM60.38 14.8777C61.1173 14.5672 62.0356 14.4016 63.1512 14.4016V13.3216C61.9341 13.3216 60.8651 13.5016 59.9609 13.8823L60.38 14.8777ZM63.1512 14.4016C63.4368 14.4016 63.7534 14.4152 64.1018 14.4431L64.1879 13.3665C63.8162 13.3368 63.4704 13.3216 63.1512 13.3216V14.4016ZM64.1034 14.4432C64.457 14.4704 64.7147 14.5163 64.891 14.5714L65.2131 13.5406C64.9286 13.4517 64.5815 13.3968 64.1862 13.3664L64.1034 14.4432ZM64.512 14.056V15.676H65.592V14.056H64.512ZM65.2228 15.1637C64.9245 15.0643 64.5945 14.9929 64.2363 14.9461L64.0966 16.0171C64.4007 16.0567 64.6612 16.1149 64.8813 16.1883L65.2228 15.1637ZM64.2394 14.9466C63.8976 14.8999 63.5492 14.8768 63.1944 14.8768V15.9568C63.5021 15.9568 63.8017 15.9769 64.0935 16.0166L64.2394 14.9466ZM63.1944 14.8768C62.1443 14.8768 61.2274 15.0514 60.4689 15.4306L60.9519 16.3966C61.5182 16.1134 62.2573 15.9568 63.1944 15.9568V14.8768ZM60.4689 15.4306C59.7291 15.8005 59.1303 16.3142 58.686 16.9723L59.5812 17.5765C59.9146 17.0826 60.367 16.6891 60.9519 16.3966L60.4689 15.4306ZM58.6809 16.9801C58.2683 17.6149 57.972 18.3371 57.7867 19.1402L58.839 19.383C58.9993 18.6885 59.2502 18.0859 59.5864 17.5687L58.6809 16.9801ZM57.7867 19.1402C57.606 19.9229 57.4942 20.7538 57.4495 21.6318L58.5281 21.6866C58.5699 20.8654 58.674 20.0979 58.839 19.383L57.7867 19.1402ZM57.9888 22.1992H58.1184V21.1192H57.9888V22.1992ZM58.5763 21.9454C58.76 21.6516 58.9943 21.3854 59.2831 21.1467L58.5953 20.3141C58.2218 20.6226 57.9089 20.9756 57.6605 21.373L58.5763 21.9454ZM59.2831 21.1467C59.5581 20.9196 59.8951 20.7332 60.3028 20.5931L59.9517 19.5717C59.4377 19.7484 58.9828 19.994 58.5953 20.3141L59.2831 21.1467ZM60.298 20.5947C60.7069 20.4584 61.1945 20.3848 61.7688 20.3848V19.3048C61.1047 19.3048 60.498 19.3896 59.9565 19.5701L60.298 20.5947ZM61.7688 20.3848C62.5848 20.3848 63.2676 20.5553 63.8359 20.8765L64.3673 19.9363C63.6108 19.5087 62.7385 19.3048 61.7688 19.3048V20.3848ZM63.848 20.8832C64.4256 21.1904 64.8753 21.6432 65.2014 22.2579L66.1554 21.7517C65.7328 20.9552 65.1313 20.3424 64.3552 19.9296L63.848 20.8832ZM65.2036 22.262C65.5254 22.8561 65.7 23.605 65.7 24.532H66.78C66.78 23.4718 66.5803 22.5359 66.1532 21.7476L65.2036 22.262ZM65.7 24.532C65.7 25.5296 65.5115 26.3623 65.1558 27.0482L66.1146 27.5454C66.5654 26.6761 66.78 25.6656 66.78 24.532H65.7ZM65.1558 27.0482C64.7988 27.7368 64.3022 28.2561 63.6619 28.6202L64.1957 29.559C65.0243 29.0879 65.6653 28.412 66.1146 27.5454L65.1558 27.0482ZM63.6579 28.6225C63.036 28.9832 62.2697 29.176 61.3368 29.176V30.256C62.4199 30.256 63.3817 30.0312 64.1998 29.5567L63.6579 28.6225ZM61.3368 29.176C60.6713 29.176 60.0606 29.0524 59.4989 28.8098L59.0707 29.8014C59.7762 30.106 60.5336 30.256 61.3368 30.256V29.176ZM59.4989 28.8098C58.9451 28.5707 58.448 28.2037 58.0071 27.6979L57.193 28.4077C57.7313 29.0251 58.3573 29.4933 59.0707 29.8014L59.4989 28.8098ZM58.0123 27.704C57.5912 27.2064 57.2473 26.5669 56.9908 25.7705L55.9628 26.1015C56.2536 27.0043 56.6584 27.776 57.1878 28.4016L58.0123 27.704ZM56.9941 25.7808C56.7535 24.9789 56.628 24.0252 56.628 22.912H55.548C55.548 24.1028 55.6818 25.1651 55.9596 26.0912L56.9941 25.7808ZM61.3152 28.6576C62.3477 28.6576 63.2284 28.3245 63.9051 27.6306L63.1318 26.8766C62.6852 27.3347 62.0972 27.5776 61.3152 27.5776V28.6576ZM63.9097 27.6258C64.6052 26.8946 64.9008 25.8263 64.9008 24.532H63.8208C63.8208 25.6857 63.5548 26.4318 63.1272 26.8814L63.9097 27.6258ZM64.9008 24.532C64.9008 23.4596 64.6232 22.543 64.0112 21.8436L63.1984 22.5548C63.5944 23.0074 63.8208 23.646 63.8208 24.532H64.9008ZM64.0163 21.8495C63.3941 21.1174 62.4789 20.7952 61.38 20.7952V21.8752C62.2683 21.8752 62.8364 22.129 63.1934 22.5489L64.0163 21.8495ZM61.38 20.7952C60.625 20.7952 59.9392 20.9565 59.3409 21.2983L59.8767 22.2361C60.2865 22.0019 60.7815 21.8752 61.38 21.8752V20.7952ZM59.3512 21.2926C58.7782 21.6037 58.3132 22.0136 57.9715 22.5261L58.8701 23.1251C59.1045 22.7736 59.4314 22.4779 59.8665 22.2418L59.3512 21.2926ZM57.9646 22.5367C57.6425 23.0453 57.4704 23.5907 57.4704 24.1648H58.5504C58.5504 23.8173 58.652 23.4699 58.877 23.1145L57.9646 22.5367ZM57.4704 24.1648C57.4704 24.6898 57.5421 25.207 57.685 25.715L58.7247 25.4226C58.6083 25.009 58.5504 24.5902 58.5504 24.1648H57.4704ZM57.6894 25.7299C57.8498 26.2433 58.0833 26.7187 58.3896 27.154L59.2728 26.5324C59.032 26.1901 58.8478 25.8159 58.7202 25.4077L57.6894 25.7299ZM58.3973 27.1646C58.7279 27.611 59.1292 27.9718 59.6001 28.2409L60.1359 27.3031C59.8004 27.1114 59.5105 26.853 59.2651 26.5218L58.3973 27.1646ZM59.6072 28.2448C60.1158 28.5254 60.6904 28.6576 61.3152 28.6576V27.5776C60.8457 27.5776 60.4555 27.4794 60.1289 27.2992L59.6072 28.2448ZM72.7258 29.5L72.2208 29.6913L72.3528 30.04H72.7258V29.5ZM68.341 17.9224V17.3824H67.559L67.836 18.1137L68.341 17.9224ZM70.3714 17.9224L70.8793 17.7392L70.7506 17.3824H70.3714V17.9224ZM72.8338 24.748L72.3258 24.9313L72.3263 24.9325L72.8338 24.748ZM73.201 25.8064L72.6887 25.9772L73.201 25.8064ZM73.5466 26.9296L73.0265 27.0752L73.0282 27.0808L73.5466 26.9296ZM73.7626 27.8152L73.2308 27.909L73.3095 28.3552H73.7626V27.8152ZM73.849 27.8152V28.3552H74.2766L74.3746 27.9389L73.849 27.8152ZM74.0866 26.908L73.5723 26.7434L73.5692 26.7529L73.5666 26.7624L74.0866 26.908ZM74.4538 25.7848L73.9474 25.5973L73.9443 25.6056L73.9415 25.614L74.4538 25.7848ZM74.821 24.748L74.3129 24.5647L74.3087 24.5772L74.821 24.748ZM77.2834 17.9224V17.3824H76.9041L76.7754 17.7392L77.2834 17.9224ZM79.3138 17.9224L79.8184 18.1145L80.0971 17.3824H79.3138V17.9224ZM74.9074 29.5V30.04H75.2796L75.412 29.6921L74.9074 29.5ZM73.2308 29.3087L68.846 17.7311L67.836 18.1137L72.2208 29.6913L73.2308 29.3087ZM68.341 18.4624H70.3714V17.3824H68.341V18.4624ZM69.8634 18.1057L72.3258 24.9312L73.3417 24.5647L70.8793 17.7392L69.8634 18.1057ZM72.3263 24.9325C72.4395 25.2439 72.5603 25.592 72.6887 25.9772L73.7132 25.6356C73.5824 25.2432 73.4584 24.8857 73.3412 24.5635L72.3263 24.9325ZM72.6887 25.9772C72.8158 26.3584 72.9283 26.7244 73.0266 27.0752L74.0666 26.784C73.9632 26.4148 73.8454 26.032 73.7132 25.6356L72.6887 25.9772ZM73.0282 27.0808C73.1257 27.4151 73.1921 27.69 73.2308 27.909L74.2943 27.7214C74.2466 27.4508 74.1691 27.1353 74.065 26.7784L73.0282 27.0808ZM73.7626 28.3552H73.849V27.2752H73.7626V28.3552ZM74.3746 27.9389C74.4299 27.704 74.5069 27.4095 74.6066 27.0536L73.5666 26.7624C73.4646 27.1265 73.3833 27.4368 73.3233 27.6915L74.3746 27.9389ZM74.6009 27.0726C74.7154 26.7148 74.8371 26.3425 74.966 25.9556L73.9415 25.614C73.8112 26.0047 73.6882 26.3812 73.5723 26.7434L74.6009 27.0726ZM74.9601 25.9724C75.1056 25.5795 75.2301 25.2282 75.3333 24.9188L74.3087 24.5772C74.2102 24.8726 74.0899 25.2125 73.9474 25.5973L74.9601 25.9724ZM75.3289 24.9312L77.7913 18.1057L76.7754 17.7392L74.313 24.5647L75.3289 24.9312ZM77.2834 18.4624H79.3138V17.3824H77.2834V18.4624ZM78.8091 17.7303L74.4027 29.3079L75.412 29.6921L79.8184 18.1145L78.8091 17.7303ZM74.9074 28.96H72.7258V30.04H74.9074V28.96ZM89.7425 18.6568L90.107 18.2584L89.7425 18.6568ZM90.7577 29.5V30.04H91.2977V29.5H90.7577ZM89.3753 29.5L88.8483 29.6179L88.9428 30.04H89.3753V29.5ZM89.0081 27.8584L89.5351 27.7405L89.4407 27.3184H89.0081V27.8584ZM88.9217 27.8584V27.3184H88.6608L88.4986 27.5228L88.9217 27.8584ZM87.8849 28.9168L88.2201 29.3402L88.2222 29.3385L87.8849 28.9168ZM86.6753 29.5216L86.5291 29.0017L86.5248 29.003L86.6753 29.5216ZM83.1545 29.3488L82.934 29.8417L82.9387 29.8438L83.1545 29.3488ZM81.8585 28.2256L81.3977 28.5072L81.4013 28.513L81.8585 28.2256ZM82.7441 23.6248L83.0485 24.0708L83.0533 24.0675L82.7441 23.6248ZM86.9345 22.588L86.951 23.1278L86.9523 23.1277L86.9345 22.588ZM88.9001 22.5232L88.9179 23.0629L89.4401 23.0457V22.5232H88.9001ZM88.2737 19.8232L87.9132 20.2253V20.2253L88.2737 19.8232ZM84.7745 19.5424L84.9372 20.0575L84.9493 20.0533L84.7745 19.5424ZM83.2409 20.1472L82.7411 20.3517L82.9589 20.8841L83.4765 20.6331L83.2409 20.1472ZM82.6577 18.7216L82.4001 18.247L81.9746 18.478L82.1579 18.9261L82.6577 18.7216ZM84.4505 18.0304L84.5917 18.5517L84.6017 18.5488L84.4505 18.0304ZM87.1721 23.9056L87.1516 23.366L87.1505 23.366L87.1721 23.9056ZM84.1697 24.5968L83.8548 24.1581L83.8494 24.1621L84.1697 24.5968ZM83.9321 27.7288L83.6005 28.1551L83.6081 28.1608L83.9321 27.7288ZM87.9065 27.3832L88.2495 27.8003L88.2549 27.7958L87.9065 27.3832ZM88.8785 23.8408H89.4185V23.2799L88.858 23.3012L88.8785 23.8408ZM86.6105 18.268C87.9569 18.268 88.8426 18.5654 89.378 19.0552L90.107 18.2584C89.2888 17.5098 88.0865 17.188 86.6105 17.188V18.268ZM89.378 19.0552C89.8987 19.5316 90.2177 20.3412 90.2177 21.616H91.2977C91.2977 20.1836 90.9399 19.0204 90.107 18.2584L89.378 19.0552ZM90.2177 21.616V29.5H91.2977V21.616H90.2177ZM90.7577 28.96H89.3753V30.04H90.7577V28.96ZM89.9023 29.3821L89.5351 27.7405L88.4811 27.9763L88.8483 29.6179L89.9023 29.3821ZM89.0081 27.3184H88.9217V28.3984H89.0081V27.3184ZM88.4986 27.5228C88.1888 27.9134 87.8714 28.2361 87.5476 28.4951L88.2222 29.3385C88.6185 29.0215 88.9922 28.6386 89.3448 28.194L88.4986 27.5228ZM87.5497 28.4934C87.2648 28.719 86.9271 28.8898 86.5291 29.0018L86.8215 30.0414C87.3451 29.8942 87.8138 29.6618 88.2201 29.3402L87.5497 28.4934ZM86.5248 29.003C86.1423 29.1141 85.6492 29.176 85.0337 29.176V30.256C85.7142 30.256 86.3155 30.1883 86.8259 30.0402L86.5248 29.003ZM85.0337 29.176C84.4072 29.176 83.8556 29.0653 83.3703 28.8538L82.9387 29.8438C83.5766 30.1219 84.2778 30.256 85.0337 30.256V29.176ZM83.375 28.8559C82.9246 28.6544 82.5752 28.3511 82.3157 27.9382L81.4013 28.513C81.7754 29.1081 82.29 29.5536 82.934 29.8417L83.375 28.8559ZM82.3193 27.944C82.0669 27.5311 81.9233 26.9872 81.9233 26.2816H80.8433C80.8433 27.1312 81.0165 27.8833 81.3977 28.5072L82.3193 27.944ZM81.9233 26.2816C81.9233 25.2977 82.2971 24.5837 83.0485 24.0708L82.4397 23.1788C81.3767 23.9043 80.8433 24.9615 80.8433 26.2816H81.9233ZM83.0533 24.0675C83.8329 23.523 85.1038 23.1842 86.951 23.1277L86.918 22.0483C84.9924 22.107 83.4697 22.4594 82.4349 23.1821L83.0533 24.0675ZM86.9523 23.1277L88.9179 23.0629L88.8823 21.9835L86.9167 22.0483L86.9523 23.1277ZM89.4401 22.5232V21.832H88.3601V22.5232H89.4401ZM89.4401 21.832C89.4401 20.8185 89.2259 19.9516 88.6342 19.4211L87.9132 20.2253C88.1568 20.4436 88.3601 20.9159 88.3601 21.832H89.4401ZM88.6342 19.4211C88.0866 18.9302 87.3503 18.7216 86.5025 18.7216V19.8016C87.1811 19.8016 87.6256 19.9674 87.9132 20.2253L88.6342 19.4211ZM86.5025 18.7216C85.841 18.7216 85.2057 18.8242 84.5997 19.0315L84.9493 20.0533C85.4377 19.8862 85.9544 19.8016 86.5025 19.8016V18.7216ZM84.6119 19.0275C84.0418 19.2075 83.506 19.4185 83.0053 19.6613L83.4765 20.6331C83.9262 20.4151 84.4128 20.2229 84.9371 20.0573L84.6119 19.0275ZM83.7407 19.9427L83.1575 18.5171L82.1579 18.9261L82.7411 20.3517L83.7407 19.9427ZM82.9153 19.1962C83.3747 18.9468 83.9314 18.7304 84.5917 18.5516L84.3093 17.5092C83.5872 17.7048 82.9487 17.9492 82.4001 18.247L82.9153 19.1962ZM84.6017 18.5488C85.2418 18.3621 85.9108 18.268 86.6105 18.268V17.188C85.8126 17.188 85.0416 17.2955 84.2993 17.512L84.6017 18.5488ZM87.1505 23.366C85.6975 23.4242 84.555 23.6554 83.8548 24.1581L84.4846 25.0355C84.9076 24.7318 85.7667 24.5022 87.1937 24.4452L87.1505 23.366ZM83.8494 24.1621C83.1516 24.6762 82.8089 25.4133 82.8089 26.3032H83.8889C83.8889 25.7243 84.0934 25.3238 84.49 25.0315L83.8494 24.1621ZM82.8089 26.3032C82.8089 27.0609 83.041 27.7198 83.6006 28.1551L84.2636 27.3026C84.0456 27.133 83.8889 26.8415 83.8889 26.3032H82.8089ZM83.6081 28.1608C84.1245 28.5481 84.7569 28.7224 85.4657 28.7224V27.6424C84.9361 27.6424 84.5462 27.5143 84.2561 27.2968L83.6081 28.1608ZM85.4657 28.7224C86.5481 28.7224 87.4891 28.4255 88.2495 27.8003L87.5636 26.9661C87.0279 27.4065 86.3418 27.6424 85.4657 27.6424V28.7224ZM88.2549 27.7958C89.0609 27.1152 89.4185 26.1049 89.4185 24.8776H88.3385C88.3385 25.8967 88.0481 26.5568 87.5581 26.9706L88.2549 27.7958ZM89.4185 24.8776V23.8408H88.3385V24.8776H89.4185ZM88.858 23.3012L87.1516 23.366L87.1926 24.4452L88.899 24.3804L88.858 23.3012ZM97.3143 29.5V30.04H97.8543V29.5H97.3143ZM95.4135 29.5H94.8735V30.04H95.4135V29.5ZM95.4135 13.084V12.544H94.8735V13.084H95.4135ZM97.3143 13.084H97.8543V12.544H97.3143V13.084ZM97.3143 28.96H95.4135V30.04H97.3143V28.96ZM95.9535 29.5V13.084H94.8735V29.5H95.9535ZM95.4135 13.624H97.3143V12.544H95.4135V13.624ZM96.7743 13.084V29.5H97.8543V13.084H96.7743ZM103.963 29.5V30.04H104.503V29.5H103.963ZM102.062 29.5H101.522V30.04H102.062V29.5ZM102.062 13.084V12.544H101.522V13.084H102.062ZM103.963 13.084H104.503V12.544H103.963V13.084ZM103.963 28.96H102.062V30.04H103.963V28.96ZM102.602 29.5V13.084H101.522V29.5H102.602ZM102.062 13.624H103.963V12.544H102.062V13.624ZM103.423 13.084V29.5H104.503V13.084H103.423ZM115.731 18.3544L115.449 18.815L115.453 18.8174L115.731 18.3544ZM117.373 20.1904L116.884 20.4212L116.89 20.4319L117.373 20.1904ZM117.956 24.0784V24.6184H118.496V24.0784H117.956ZM110.029 24.0784V23.5384H109.477L109.489 24.0903L110.029 24.0784ZM111.022 27.0808L110.624 27.4458L110.632 27.4542L111.022 27.0808ZM115.666 27.9016L115.788 28.4279L115.797 28.4255L115.666 27.9016ZM117.437 27.2968H117.977V26.4779L117.225 26.8005L117.437 27.2968ZM117.437 28.96L117.654 29.4544L117.977 29.3127V28.96H117.437ZM115.688 29.5216L115.582 28.9919L115.569 28.9948L115.688 29.5216ZM110.72 29.0464L110.465 29.5227L110.469 29.5244L110.72 29.0464ZM108.754 27.0592L108.274 27.3069L108.279 27.3161L108.754 27.0592ZM108.689 20.536L108.202 20.3038L108.199 20.3102L108.689 20.536ZM110.482 18.4408L110.194 17.9838L110.191 17.9863L110.482 18.4408ZM111.001 20.1472L110.6 19.7854L110.599 19.786L111.001 20.1472ZM110.072 22.5664L109.534 22.5141L109.477 23.1064H110.072V22.5664ZM115.969 22.5664V23.1064H116.509V22.5664H115.969ZM115.666 20.8384L115.167 21.044V21.044L115.666 20.8384ZM114.737 19.6936L114.424 20.133L114.432 20.1393L114.441 20.1453L114.737 19.6936ZM113.182 18.2464C114.096 18.2464 114.844 18.4445 115.449 18.8149L116.013 17.8939C115.207 17.4003 114.255 17.1664 113.182 17.1664V18.2464ZM115.453 18.8174C116.078 19.1921 116.554 19.7213 116.884 20.4212L117.861 19.9596C117.443 19.0755 116.824 18.3807 116.009 17.8914L115.453 18.8174ZM116.89 20.4319C117.234 21.1204 117.416 21.9489 117.416 22.9336H118.496C118.496 21.8159 118.289 20.8156 117.856 19.9489L116.89 20.4319ZM117.416 22.9336V24.0784H118.496V22.9336H117.416ZM117.956 23.5384H110.029V24.6184H117.956V23.5384ZM109.489 24.0903C109.519 25.4797 109.872 26.6255 110.624 27.4457L111.42 26.7159C110.905 26.1537 110.596 25.2979 110.568 24.0665L109.489 24.0903ZM110.632 27.4542C111.405 28.261 112.459 28.636 113.722 28.636V27.556C112.681 27.556 111.936 27.2542 111.412 26.7074L110.632 27.4542ZM113.722 28.636C114.487 28.636 115.177 28.5687 115.788 28.4278L115.545 27.3754C115.032 27.4937 114.426 27.556 113.722 27.556V28.636ZM115.797 28.4255C116.404 28.2738 117.022 28.0625 117.65 27.7931L117.225 26.8005C116.644 27.0495 116.081 27.2414 115.535 27.3777L115.797 28.4255ZM116.897 27.2968V28.96H117.977V27.2968H116.897ZM117.22 28.4656C116.662 28.7106 116.116 28.8852 115.582 28.9921L115.794 30.0511C116.411 29.9276 117.032 29.7278 117.654 29.4544L117.22 28.4656ZM115.569 28.9948C115.043 29.1132 114.401 29.176 113.636 29.176V30.256C114.455 30.256 115.181 30.1892 115.806 30.0484L115.569 28.9948ZM113.636 29.176C112.617 29.176 111.733 28.9687 110.971 28.5684L110.469 29.5244C111.406 30.0169 112.466 30.256 113.636 30.256V29.176ZM110.974 28.5702C110.238 28.1765 109.657 27.5929 109.229 26.8023L108.279 27.3161C108.802 28.2823 109.531 29.0235 110.465 29.5226L110.974 28.5702ZM109.234 26.8115C108.822 26.0135 108.603 25.0161 108.603 23.7976H107.523C107.523 25.1423 107.765 26.3193 108.274 27.3069L109.234 26.8115ZM108.603 23.7976C108.603 22.5881 108.802 21.5818 109.18 20.7618L108.199 20.3102C107.741 21.3046 107.523 22.4727 107.523 23.7976H108.603ZM109.177 20.7682C109.57 19.9418 110.104 19.3248 110.774 18.8953L110.191 17.9863C109.334 18.536 108.672 19.3158 108.202 20.3038L109.177 20.7682ZM110.77 18.8978C111.452 18.4684 112.25 18.2464 113.182 18.2464V17.1664C112.07 17.1664 111.068 17.434 110.194 17.9838L110.77 18.8978ZM113.161 18.7216C112.124 18.7216 111.25 19.065 110.6 19.7854L111.402 20.509C111.817 20.0486 112.382 19.8016 113.161 19.8016V18.7216ZM110.599 19.786C109.981 20.473 109.643 21.4015 109.534 22.5141L110.609 22.6187C110.703 21.6577 110.984 20.9734 111.402 20.5084L110.599 19.786ZM110.072 23.1064H115.969V22.0264H110.072V23.1064ZM116.509 22.5664C116.509 21.8506 116.4 21.2018 116.166 20.6328L115.167 21.044C115.336 21.4543 115.429 21.9574 115.429 22.5664H116.509ZM116.166 20.6328C115.925 20.049 115.548 19.5789 115.033 19.2419L114.441 20.1453C114.762 20.3555 115.004 20.6486 115.167 21.044L116.166 20.6328ZM115.051 19.2542C114.532 18.8833 113.887 18.7216 113.161 18.7216V19.8016C113.731 19.8016 114.136 19.9279 114.424 20.133L115.051 19.2542ZM119.747 17.9224V17.3824H118.948L119.246 18.1236L119.747 17.9224ZM121.777 17.9224L122.282 17.7304L122.15 17.3824H121.777V17.9224ZM124.283 24.5104L124.789 24.3228L124.788 24.3184L124.283 24.5104ZM124.672 25.6336L124.157 25.7982L124.16 25.8074L124.164 25.8165L124.672 25.6336ZM125.017 26.692L124.499 26.8432L124.501 26.8492L125.017 26.692ZM125.255 27.664L124.724 27.7606L124.804 28.204H125.255V27.664ZM125.341 27.664V28.204H125.767L125.866 27.79L125.341 27.664ZM125.752 26.26L126.265 26.4269L126.266 26.4232L125.752 26.26ZM126.335 24.4888L125.827 24.3065L125.824 24.3143L126.335 24.4888ZM128.689 17.9224V17.3824H128.309L128.181 17.7401L128.689 17.9224ZM130.741 17.9224L131.246 18.1136L131.523 17.3824H130.741V17.9224ZM125.752 31.0984L126.257 31.2902L126.257 31.2896L125.752 31.0984ZM124.78 32.9776L124.338 32.6671L124.333 32.6739L124.329 32.6808L124.78 32.9776ZM123.441 34.2304L123.184 33.7554L123.176 33.7595L123.168 33.764L123.441 34.2304ZM120.633 34.6192L120.721 34.0865L120.707 34.0841L120.692 34.0825L120.633 34.6192ZM119.963 34.5112H119.423V34.9408L119.842 35.0374L119.963 34.5112ZM119.963 32.9992L120.06 32.4679L119.423 32.3522V32.9992H119.963ZM120.525 33.0856L120.453 33.6209L120.458 33.6214L120.525 33.0856ZM122.382 32.8696L122.149 32.3824L122.136 32.3887L122.124 32.3955L122.382 32.8696ZM123.225 32.1568L122.795 31.8295L122.788 31.8392L123.225 32.1568ZM123.808 31.0768L123.305 30.8787L123.303 30.8853L123.808 31.0768ZM124.413 29.5432L124.915 29.7413L124.994 29.5414L124.914 29.342L124.413 29.5432ZM119.747 18.4624H121.777V17.3824H119.747V18.4624ZM121.273 18.1144L123.778 24.7024L124.788 24.3184L122.282 17.7304L121.273 18.1144ZM123.777 24.698C123.918 25.0799 124.045 25.4466 124.157 25.7982L125.186 25.469C125.068 25.1006 124.936 24.7185 124.789 24.3229L123.777 24.698ZM124.164 25.8165C124.29 26.1667 124.401 26.5089 124.499 26.8432L125.536 26.5408C125.432 26.1839 125.313 25.8205 125.18 25.4507L124.164 25.8165ZM124.501 26.8492C124.596 27.162 124.67 27.4657 124.724 27.7606L125.786 27.5674C125.725 27.2287 125.64 26.8844 125.534 26.5348L124.501 26.8492ZM125.255 28.204H125.341V27.124H125.255V28.204ZM125.866 27.79C125.948 27.4496 126.08 26.9967 126.265 26.4269L125.238 26.0931C125.049 26.6753 124.907 27.1584 124.816 27.538L125.866 27.79ZM126.266 26.4232C126.452 25.8366 126.646 25.25 126.846 24.6633L125.824 24.3143C125.621 24.9084 125.425 25.5026 125.237 26.0968L126.266 26.4232ZM126.843 24.6711L129.198 18.1047L128.181 17.7401L125.827 24.3065L126.843 24.6711ZM128.689 18.4624H130.741V17.3824H128.689V18.4624ZM130.236 17.7312L125.247 30.9072L126.257 31.2896L131.246 18.1136L130.236 17.7312ZM125.247 30.9066C124.986 31.592 124.682 32.1771 124.338 32.6671L125.222 33.2881C125.626 32.7125 125.97 32.0448 126.257 31.2902L125.247 30.9066ZM124.329 32.6808C124.014 33.1597 123.632 33.5132 123.184 33.7554L123.697 34.7054C124.315 34.3716 124.826 33.8899 125.231 33.2744L124.329 32.6808ZM123.168 33.764C122.751 34.0076 122.216 34.144 121.54 34.144V35.224C122.361 35.224 123.094 35.058 123.713 34.6968L123.168 33.764ZM121.54 34.144C121.215 34.144 120.944 34.1236 120.721 34.0865L120.544 35.1519C120.84 35.2012 121.173 35.224 121.54 35.224V34.144ZM120.692 34.0825C120.447 34.0553 120.245 34.0222 120.084 33.985L119.842 35.0374C120.055 35.0866 120.3 35.1255 120.573 35.1559L120.692 34.0825ZM120.503 34.5112V32.9992H119.423V34.5112H120.503ZM119.866 33.5305C120.035 33.5612 120.231 33.5913 120.453 33.6209L120.596 32.5503C120.386 32.5223 120.207 32.4948 120.06 32.4679L119.866 33.5305ZM120.458 33.6214C120.711 33.6532 120.971 33.6688 121.237 33.6688V32.5888C121.014 32.5888 120.799 32.5756 120.592 32.5498L120.458 33.6214ZM121.237 33.6688C121.753 33.6688 122.228 33.5688 122.641 33.3437L122.124 32.3955C121.903 32.516 121.615 32.5888 121.237 32.5888V33.6688ZM122.615 33.3568C123.033 33.1571 123.382 32.8588 123.661 32.4744L122.788 31.8392C122.607 32.0884 122.394 32.2653 122.149 32.3824L122.615 33.3568ZM123.654 32.4841C123.921 32.1338 124.139 31.7263 124.313 31.2683L123.303 30.8853C123.16 31.2625 122.989 31.575 122.795 31.8295L123.654 32.4841ZM124.31 31.2749L124.915 29.7413L123.91 29.3451L123.305 30.8787L124.31 31.2749ZM124.914 29.342L120.248 17.7212L119.246 18.1236L123.911 29.7444L124.914 29.342Z" fill="#E1F4FF" mask="url(#path-1-outside-1_2_1838)"/>
<path d="M7.19031 2.83535C8.34476 4.09325 8.38555 5.77367 8.79023 7.30895C9.48667 9.95376 8.9314 9.47318 11.3752 9.4764C20.752 9.48608 30.1288 9.4635 39.5056 9.4506C39.7284 9.4506 39.9542 9.44737 40.177 9.45382C41.8679 9.5022 42.58 10.415 42.2004 12.0857C41.8396 13.6694 41.4475 15.2498 41.0679 16.8303C40.2052 20.4362 39.3394 24.0454 38.4767 27.6514C38.4108 27.9223 38.4233 28.2868 38.1284 28.3707C37.8681 28.4448 37.7206 28.1191 37.5512 27.9449C36.1803 26.5548 34.8376 25.1356 33.4416 23.7745C32.924 23.2681 32.9522 22.9198 33.4698 22.4714C33.8965 22.1037 34.2729 21.6748 34.6651 21.2684C35.2297 20.6814 35.2078 20.5749 34.4517 20.3653C32.7546 19.8944 31.0543 19.4428 29.354 18.9751C28.0615 18.6203 26.7721 18.243 25.4765 17.8946C25.2161 17.8237 24.8961 17.6431 24.6765 17.8366C24.4318 18.0527 24.6483 18.3688 24.7173 18.6332C25.4859 21.5845 26.2608 24.5389 27.0356 27.4901C27.0921 27.7095 27.1737 27.9256 27.227 28.1481C27.3368 28.5868 27.5407 28.5545 27.8042 28.2803C28.3156 27.7514 28.8457 27.2418 29.3383 26.6935C29.6739 26.3161 29.928 26.2903 30.2919 26.6741C31.4213 27.8675 32.582 29.0286 33.7208 30.2091C33.8651 30.3607 34.1412 30.5059 34.0126 30.7607C33.8933 31.0026 33.611 30.8897 33.4008 30.8897C26.4019 30.8897 19.4062 30.8864 12.4073 30.8768C11.4254 30.8768 10.9172 30.4284 10.6882 29.4737C9.23256 23.3971 7.77067 17.3205 6.31506 11.2439C5.98252 9.857 5.64685 8.47008 5.35824 7.07672C5.21393 6.37681 4.92218 5.95429 4.163 5.94139C3.63597 5.91881 3.1058 5.8414 2.5819 5.74787C1.22981 5.51241 0.721599 4.5448 1.24863 3.23207C1.30196 3.09983 1.3898 2.98372 1.31137 2.83535C3.27206 2.83535 5.22962 2.83535 7.19031 2.83535Z" fill="#1B7FED"/>
<path d="M17.2624 37.2082C15.5715 37.2082 14.9096 36.6115 14.9064 35.0794C14.9033 33.6893 15.9417 32.6024 17.2687 32.6056C18.5329 32.6088 19.7156 33.8216 19.6937 35.0924C19.6686 36.5147 18.8717 37.2082 17.2624 37.2082Z" fill="#1B7FED"/>
<path d="M31.3823 37.2082C29.9675 37.2082 29.3213 36.7663 29.0923 35.6374C28.8507 34.4601 29.3965 33.3151 30.4098 32.8571C31.5047 32.3636 32.6874 32.6926 33.3838 33.6796C34.0144 34.573 33.9234 35.947 33.1736 36.7663C32.7721 37.2049 32.7533 37.2082 31.3823 37.2082Z" fill="#1B7FED"/>
</svg>
