<svg width="18" height="18" viewBox="0 0 18 18" fill="none" xmlns="http://www.w3.org/2000/svg">
<path d="M12.9675 6.98252C12.8981 6.91299 12.8157 6.85783 12.725 6.82019C12.6342 6.78256 12.537 6.76318 12.4387 6.76318C12.3405 6.76318 12.2433 6.78256 12.1525 6.82019C12.0618 6.85783 11.9794 6.91299 11.91 6.98252L9 9.89252L6.09 6.98252C5.94977 6.84228 5.75957 6.7635 5.56125 6.7635C5.36293 6.7635 5.17273 6.84228 5.0325 6.98252C4.89227 7.12275 4.81348 7.31295 4.81348 7.51127C4.81348 7.70959 4.89227 7.89978 5.0325 8.04002L8.475 11.4825C8.54438 11.552 8.6268 11.6072 8.71753 11.6448C8.80826 11.6825 8.90552 11.7018 9.00375 11.7018C9.10198 11.7018 9.19924 11.6825 9.28997 11.6448C9.3807 11.6072 9.46311 11.552 9.5325 11.4825L12.975 8.04002C13.26 7.75502 13.26 7.27502 12.9675 6.98252Z" fill="#9B9B9B"/>
</svg>
