<svg width="10" height="6" viewBox="0 0 10 6" fill="none" xmlns="http://www.w3.org/2000/svg">
<path d="M8.9675 0.982517C8.89811 0.912989 8.8157 0.857828 8.72497 0.820192C8.63424 0.782556 8.53698 0.763184 8.43875 0.763184C8.34052 0.763184 8.24326 0.782556 8.15253 0.820192C8.0618 0.857828 7.97938 0.912989 7.91 0.982517L5 3.89252L2.09 0.982516C1.94977 0.842283 1.75957 0.763501 1.56125 0.763501C1.36293 0.763501 1.17273 0.842283 1.0325 0.982516C0.892265 1.12275 0.813484 1.31295 0.813484 1.51127C0.813484 1.70959 0.892265 1.89978 1.0325 2.04002L4.475 5.48252C4.54438 5.55204 4.6268 5.60721 4.71753 5.64484C4.80826 5.68248 4.90552 5.70185 5.00375 5.70185C5.10198 5.70185 5.19924 5.68248 5.28997 5.64484C5.3807 5.60721 5.46311 5.55204 5.5325 5.48252L8.975 2.04002C9.26 1.75502 9.26 1.27502 8.9675 0.982517Z" fill="#222222"/>
</svg>
