<svg width="10" height="6" viewBox="0 0 10 6" fill="none" xmlns="http://www.w3.org/2000/svg">
<path d="M9.40834 0.445075C9.33124 0.374259 9.23967 0.318077 9.13886 0.279744C9.03804 0.241411 8.92998 0.22168 8.82084 0.22168C8.71169 0.22168 8.60363 0.241411 8.50282 0.279744C8.402 0.318077 8.31043 0.374259 8.23334 0.445075L5 3.40896L1.76667 0.445074C1.61085 0.302244 1.39952 0.222003 1.17917 0.222003C0.958814 0.222003 0.747481 0.302244 0.591667 0.445074C0.435852 0.587904 0.348318 0.781624 0.348318 0.983616C0.348318 1.18561 0.435852 1.37933 0.591667 1.52216L4.41667 5.02841C4.49376 5.09922 4.58534 5.15541 4.68615 5.19374C4.78696 5.23207 4.89503 5.2518 5.00417 5.2518C5.11331 5.2518 5.22138 5.23207 5.32219 5.19374C5.423 5.15541 5.51457 5.09922 5.59167 5.02841L9.41667 1.52216C9.73334 1.23188 9.73334 0.742991 9.40834 0.445075Z" fill="white"/>
</svg>
