<svg width="18" height="17" viewBox="0 0 18 17" fill="none" xmlns="http://www.w3.org/2000/svg">
<path d="M3 12.625C2.7875 12.625 2.6095 12.559 2.466 12.427C2.322 12.2955 2.25 12.1323 2.25 11.9375C2.25 11.7427 2.322 11.5795 2.466 11.448C2.6095 11.316 2.7875 11.25 3 11.25H15C15.2125 11.25 15.3905 11.316 15.534 11.448C15.678 11.5795 15.75 11.7427 15.75 11.9375C15.75 12.1323 15.678 12.2955 15.534 12.427C15.3905 12.559 15.2125 12.625 15 12.625H3ZM3 9.1875C2.7875 9.1875 2.6095 9.1215 2.466 8.9895C2.322 8.85796 2.25 8.69479 2.25 8.5C2.25 8.30521 2.322 8.14181 2.466 8.00981C2.6095 7.87827 2.7875 7.8125 3 7.8125H15C15.2125 7.8125 15.3905 7.87827 15.534 8.00981C15.678 8.14181 15.75 8.30521 15.75 8.5C15.75 8.69479 15.678 8.85796 15.534 8.9895C15.3905 9.1215 15.2125 9.1875 15 9.1875H3ZM3 5.75C2.7875 5.75 2.6095 5.68423 2.466 5.55269C2.322 5.42069 2.25 5.25729 2.25 5.0625C2.25 4.86771 2.322 4.70431 2.466 4.57231C2.6095 4.44077 2.7875 4.375 3 4.375H15C15.2125 4.375 15.3905 4.44077 15.534 4.57231C15.678 4.70431 15.75 4.86771 15.75 5.0625C15.75 5.25729 15.678 5.42069 15.534 5.55269C15.3905 5.68423 15.2125 5.75 15 5.75H3Z" fill="white"/>
</svg>
