<svg width="9" height="18" viewBox="0 0 9 18" fill="none" xmlns="http://www.w3.org/2000/svg">
<path d="M0.418388 1.06207V9.29463C0.418388 9.79773 0.830016 10.2094 1.33312 10.2094H3.16257V16.7497C3.16257 17.2162 3.77544 17.3808 4.01327 16.9783L8.76071 8.83726C8.84225 8.69884 8.88569 8.54131 8.88664 8.38067C8.88758 8.22002 8.84599 8.06199 8.76609 7.92262C8.68618 7.78326 8.57082 7.66752 8.4317 7.58718C8.29259 7.50683 8.13469 7.46474 7.97405 7.46517H5.90676L8.18443 1.38222C8.23731 1.24437 8.25583 1.09572 8.23838 0.949112C8.22093 0.802503 8.16803 0.662348 8.08428 0.540762C8.00052 0.419176 7.88841 0.319816 7.75764 0.25127C7.62687 0.182723 7.48138 0.147053 7.33374 0.147341H1.33312C0.830016 0.147341 0.418388 0.558968 0.418388 1.06207Z" fill="white"/>
</svg>
