<svg width="16" height="16" viewBox="0 0 16 16" fill="none" xmlns="http://www.w3.org/2000/svg">
<path d="M14.3749 13.0484L13.3333 3.24845C13.3333 2.63233 12.856 2.1333 12.2667 2.1333H8.00001H3.73334C3.14401 2.1333 2.66667 2.63233 2.66667 3.24845L1.62507 13.0484C1.60961 13.1248 1.60001 13.2034 1.60001 13.2848C1.60001 13.9009 2.07734 14.4 2.66667 14.4H8.00001H13.3333C13.9227 14.4 14.4 13.9009 14.4 13.2848C14.4 13.2034 14.3904 13.1248 14.3749 13.0484ZM10.6667 4.86988V5.47876C10.6667 7.01599 9.47041 8.26663 8.00001 8.26663C6.52961 8.26663 5.33334 7.01599 5.33334 5.47876V4.86988C5.02347 4.75502 4.80001 4.44836 4.80001 4.08482C4.80001 3.62314 5.15841 3.24845 5.60001 3.24845C6.04161 3.24845 6.40001 3.62314 6.40001 4.08482V5.47876C6.40001 6.40099 7.11787 7.15148 8.00001 7.15148C8.88214 7.15148 9.60001 6.40099 9.60001 5.47876V4.08482C9.60001 3.62314 9.95841 3.24845 10.4 3.24845C10.8416 3.24845 11.2 3.62314 11.2 4.08482C11.2 4.44836 10.9765 4.75502 10.6667 4.86988Z" fill="#1B7FED"/>
</svg>
