<svg width="19" height="18" viewBox="0 0 19 18" fill="none" xmlns="http://www.w3.org/2000/svg">
<path d="M14 13.9182V12.349L18.1667 14.849L14 17.349V15.6074C12.7262 15.425 11.5207 14.9179 10.4996 14.1349C9.47842 13.3519 8.67588 12.3194 8.16916 11.1365L8.16666 11.1324L8.16416 11.1374C7.58589 12.4863 6.62455 13.636 5.39923 14.4439C4.17392 15.2518 2.7385 15.6824 1.27082 15.6824H0.666656V14.0157H1.27082C2.41247 14.0157 3.52902 13.6806 4.48209 13.0521C5.43515 12.4236 6.18284 11.5292 6.63249 10.4799L7.25999 9.01571L6.63249 7.55154C6.18284 6.50217 5.43515 5.6078 4.48209 4.97929C3.52902 4.35077 2.41247 4.01574 1.27082 4.01571H0.666656V2.34904H1.27082C2.73859 2.34911 4.17408 2.77985 5.3994 3.5879C6.62473 4.39594 7.58602 5.54576 8.16416 6.89487L8.16666 6.89904L8.16916 6.89404C8.676 5.71137 9.47858 4.67899 10.4997 3.89616C11.5209 3.11333 12.7263 2.60637 14 2.42404V0.682373L18.1667 3.18237L14 5.68237V4.11321C13.0557 4.28816 12.1693 4.69353 11.4193 5.29333C10.6693 5.89314 10.079 6.66883 9.70082 7.55154L9.07332 9.01571L9.70082 10.4799C10.079 11.3626 10.6693 12.1383 11.4193 12.7381C12.1693 13.3379 13.0557 13.7433 14 13.9182Z" fill="#A1B1C2"/>
</svg>
