<svg width="14" height="14" viewBox="0 0 14 14" fill="none" xmlns="http://www.w3.org/2000/svg">
<path d="M3.74184 2.11084C3.33777 2.11043 2.94797 2.26021 2.6481 2.5311C2.34824 2.80198 2.1597 3.17464 2.11909 3.57674C2.07848 3.97884 2.1887 4.38169 2.42835 4.70708C2.668 5.03247 3.01998 5.25719 3.41597 5.33762V8.30364C3.41597 8.90875 3.65629 9.48907 4.08408 9.91695C4.51187 10.3448 5.09208 10.5852 5.69706 10.5852H6.86564L6.11809 11.3322L6.57952 11.7938L8.11307 10.2593L6.57952 8.72475L6.11809 9.18628L6.86564 9.93333H5.69706C5.26493 9.93333 4.8505 9.76163 4.54493 9.456C4.23937 9.15038 4.06771 8.73586 4.06771 8.30364V5.33762C4.46369 5.25719 4.81567 5.03247 5.05532 4.70708C5.29497 4.38169 5.40519 3.97884 5.36458 3.57674C5.32397 3.17464 5.13544 2.80198 4.83557 2.5311C4.5357 2.26021 4.1459 2.11043 3.74184 2.11084ZM7.88301 2.66754L7.42157 2.20601L5.88802 3.74053L7.42157 5.27504L7.88301 4.81351L7.13546 4.06646H8.30403C8.518 4.06646 8.72988 4.10862 8.92756 4.19052C9.12524 4.27241 9.30486 4.39246 9.45616 4.54379C9.60746 4.69512 9.72748 4.87477 9.80936 5.07249C9.89124 5.27022 9.93339 5.48213 9.93339 5.69615V8.66217C9.53777 8.74295 9.18622 8.96777 8.94691 9.29305C8.7076 9.61834 8.59757 10.0209 8.63815 10.4227C8.67874 10.8245 8.86704 11.197 9.16656 11.4678C9.46608 11.7387 9.85548 11.8886 10.2593 11.8886C10.663 11.8886 11.0524 11.7387 11.352 11.4678C11.6515 11.197 11.8398 10.8245 11.8804 10.4227C11.9209 10.0209 11.8109 9.61834 11.5716 9.29305C11.3323 8.96777 10.9808 8.74295 10.5851 8.66217V5.69615C10.5851 5.09104 10.3448 4.51072 9.91701 4.08284C9.48922 3.65497 8.90902 3.41459 8.30403 3.41459H7.13546L7.88301 2.66754Z" fill="#1B7FED"/>
</svg>
