<svg width="15" height="15" viewBox="0 0 15 15" fill="none" xmlns="http://www.w3.org/2000/svg">
<g clip-path="url(#clip0_2_508)">
<path fill-rule="evenodd" clip-rule="evenodd" d="M6.44799 0.435918L5.31799 1.56492C5.22675 1.6562 5.10306 1.70762 4.97399 1.70792H3.19599C2.37399 1.70792 1.70799 2.37392 1.70799 3.19592V4.97392C1.70774 5.10329 1.65633 5.2273 1.56499 5.31892L0.434994 6.44792C0.156047 6.72696 -0.000656128 7.10536 -0.000656128 7.49992C-0.000656128 7.89447 0.156047 8.27288 0.434994 8.55192L1.56499 9.68192C1.65628 9.77316 1.70769 9.89685 1.70799 10.0259V11.8039C1.70799 12.6259 2.37399 13.2919 3.19599 13.2919H4.97399C5.10336 13.2922 5.22738 13.3436 5.31899 13.4349L6.44799 14.5649C6.72703 14.8439 7.10544 15.0006 7.49999 15.0006C7.89455 15.0006 8.27295 14.8439 8.55199 14.5649L9.68199 13.4349C9.77324 13.3436 9.89693 13.2922 10.026 13.2919H11.804C12.626 13.2919 13.292 12.6259 13.292 11.8039V10.0259C13.2922 9.89655 13.3437 9.77253 13.435 9.68092L14.565 8.55192C14.8439 8.27288 15.0006 7.89447 15.0006 7.49992C15.0006 7.10536 14.8439 6.72696 14.565 6.44792L13.435 5.31792C13.3437 5.22667 13.2923 5.10298 13.292 4.97392V3.19592C13.292 2.37392 12.626 1.70792 11.804 1.70792H10.026C9.89658 1.70788 9.77248 1.65644 9.68099 1.56492L8.55199 0.434918C8.27295 0.155971 7.89455 -0.000732422 7.49999 -0.000732422C7.10544 -0.000732422 6.72703 0.156971 6.44799 0.435918ZM4.64599 9.64592L9.64599 4.64592L10.354 5.35392L5.35399 10.3539L4.64599 9.64592ZM4.99999 4.99992V5.99992H5.99999V4.99992H4.99999ZM8.99999 9.99992H9.99999V8.99992H8.99999V9.99992Z" fill="#FFBE00"/>
</g>
<defs>
<clipPath id="clip0_2_508">
<rect width="15" height="15" fill="white"/>
</clipPath>
</defs>
</svg>
