<svg width="14" height="14" viewBox="0 0 14 14" fill="none" xmlns="http://www.w3.org/2000/svg">
<path d="M2.81972 7.52055V7.52305C2.80569 7.57598 2.78136 7.62562 2.74812 7.66914C2.71489 7.71266 2.6734 7.7492 2.62604 7.77667C2.57867 7.80415 2.52636 7.82202 2.47208 7.82926C2.4178 7.8365 2.36263 7.83298 2.30972 7.81888C1.95055 7.72388 2.01389 7.30971 2.01389 7.30971L2.02889 7.25805C2.02889 7.25805 2.05055 7.18805 2.06805 7.13721C2.28191 6.53762 2.59672 5.97901 2.99889 5.48555C3.74639 4.57388 5.00389 3.66638 6.99972 3.66638C8.99555 3.66638 10.2531 4.57388 11.0014 5.48555C11.4036 5.97901 11.7184 6.53762 11.9322 7.13721C11.9501 7.18875 11.9668 7.24071 11.9822 7.29305L11.9847 7.30388V7.30722L11.9856 7.30888C12.012 7.41494 11.9957 7.52713 11.9402 7.62128C11.8847 7.71543 11.7944 7.784 11.6888 7.8122C11.5832 7.8404 11.4707 7.82599 11.3757 7.77205C11.2806 7.71812 11.2105 7.62899 11.1806 7.52388L11.1797 7.52055L11.1731 7.49972C11.1258 7.35221 11.0702 7.20753 11.0064 7.06638C10.8366 6.6887 10.618 6.33486 10.3564 6.01388C9.73805 5.25971 8.70305 4.49972 6.99972 4.49972C5.29639 4.49972 4.26222 5.25971 3.64305 6.01388C3.30347 6.43095 3.03719 6.90265 2.85555 7.40888C2.84526 7.43897 2.83553 7.46926 2.82639 7.49972L2.81972 7.52055ZM6.99972 6.16638C6.44719 6.16638 5.91728 6.38587 5.52658 6.77658C5.13588 7.16728 4.91639 7.69718 4.91639 8.24971C4.91639 8.80225 5.13588 9.33215 5.52658 9.72285C5.91728 10.1136 6.44719 10.333 6.99972 10.333C7.55226 10.333 8.08216 10.1136 8.47286 9.72285C8.86356 9.33215 9.08305 8.80225 9.08305 8.24971C9.08305 7.69718 8.86356 7.16728 8.47286 6.77658C8.08216 6.38587 7.55226 6.16638 6.99972 6.16638ZM5.74972 8.24971C5.74972 7.91819 5.88142 7.60025 6.11584 7.36583C6.35026 7.13141 6.6682 6.99971 6.99972 6.99971C7.33124 6.99971 7.64918 7.13141 7.8836 7.36583C8.11802 7.60025 8.24972 7.91819 8.24972 8.24971C8.24972 8.58124 8.11802 8.89918 7.8836 9.1336C7.64918 9.36802 7.33124 9.49971 6.99972 9.49971C6.6682 9.49971 6.35026 9.36802 6.11584 9.1336C5.88142 8.89918 5.74972 8.58124 5.74972 8.24971Z" fill="#1B7FED"/>
</svg>
