<svg width="17" height="16" viewBox="0 0 17 16" fill="none" xmlns="http://www.w3.org/2000/svg">
<path d="M3.55208 2H12.8854C13.239 2 13.5782 2.14048 13.8282 2.39052C14.0783 2.64057 14.2188 2.97971 14.2188 3.33333V12.6667C14.2188 13.0203 14.0783 13.3594 13.8282 13.6095C13.5782 13.8595 13.239 14 12.8854 14H3.55208C3.19846 14 2.85932 13.8595 2.60927 13.6095C2.35923 13.3594 2.21875 13.0203 2.21875 12.6667V3.33333C2.21875 2.97971 2.35923 2.64057 2.60927 2.39052C2.85932 2.14048 3.19846 2 3.55208 2ZM12.2188 3.33333H10.5521C9.93325 3.33333 9.33975 3.57917 8.90217 4.01675C8.46458 4.45434 8.21875 5.04783 8.21875 5.66667V7.33333H6.88542V9.33333H8.21875V14H10.2188V9.33333H12.2188V7.33333H10.2188V6C10.2188 5.82319 10.289 5.65362 10.414 5.5286C10.539 5.40357 10.7086 5.33333 10.8854 5.33333H12.2188V3.33333Z" fill="white"/>
</svg>
