<svg width="17" height="15" viewBox="0 0 17 15" fill="none" xmlns="http://www.w3.org/2000/svg">
<path d="M8.75 14.4063C8.64868 14.4073 8.54887 14.3817 8.46055 14.332C8.14141 14.1539 0.734375 9.9457 0.734375 4.60938C0.734375 3.67474 1.02845 2.7638 1.57494 2.00559C2.12143 1.24737 2.89263 0.680327 3.7793 0.38477C4.66597 0.0892128 5.62316 0.0801296 6.51528 0.358807C7.4074 0.637484 8.18922 1.18979 8.75 1.9375C9.31078 1.18979 10.0926 0.637484 10.9847 0.358807C11.8768 0.0801296 12.834 0.0892128 13.7207 0.38477C14.6074 0.680327 15.3786 1.24737 15.9251 2.00559C16.4716 2.7638 16.7656 3.67474 16.7656 4.60938C16.7656 6.88047 15.452 9.21094 12.8617 11.5414C11.6855 12.5988 10.4049 13.5338 9.03945 14.332C8.95113 14.3817 8.85132 14.4073 8.75 14.4063ZM5.1875 1.34375C4.3214 1.34375 3.49078 1.68781 2.87835 2.30023C2.26593 2.91265 1.92188 3.74328 1.92188 4.60938C1.92188 8.70625 7.41406 12.3059 8.75 13.1223C10.0859 12.3059 15.5781 8.70625 15.5781 4.60938C15.5788 3.85444 15.3179 3.12259 14.8398 2.53833C14.3617 1.95407 13.696 1.5535 12.9559 1.40477C12.2157 1.25605 11.4469 1.36835 10.7802 1.72257C10.1136 2.07679 9.59021 2.65106 9.29922 3.34766C9.25449 3.45656 9.17839 3.5497 9.0806 3.61525C8.9828 3.6808 8.86773 3.7158 8.75 3.7158C8.63227 3.7158 8.5172 3.6808 8.41941 3.61525C8.32161 3.5497 8.24552 3.45656 8.20078 3.34766C7.95365 2.75262 7.53527 2.24444 6.99876 1.88765C6.46225 1.53086 5.83181 1.34154 5.1875 1.34375Z" fill="#A1B1C2"/>
</svg>
