<svg width="16" height="16" viewBox="0 0 16 16" fill="none" xmlns="http://www.w3.org/2000/svg">
<path d="M8 13.625C7.92001 13.6258 7.84122 13.6056 7.77148 13.5664C7.51953 13.4258 1.67188 10.1035 1.67188 5.89062C1.67188 5.15276 1.90404 4.43359 2.33548 3.835C2.76692 3.23641 3.37576 2.78874 4.07576 2.55541C4.77577 2.32208 5.53144 2.3149 6.23575 2.53491C6.94005 2.75492 7.55728 3.19096 8 3.78125C8.44272 3.19096 9.05995 2.75492 9.76425 2.53491C10.4686 2.3149 11.2242 2.32208 11.9242 2.55541C12.6242 2.78874 13.2331 3.23641 13.6645 3.835C14.096 4.43359 14.3281 5.15276 14.3281 5.89062C14.3281 7.68359 13.291 9.52344 11.2461 11.3633C10.3175 12.1981 9.30646 12.9362 8.22852 13.5664C8.15878 13.6056 8.07999 13.6258 8 13.625ZM5.1875 3.3125C4.50374 3.3125 3.84798 3.58412 3.36449 4.06762C2.881 4.55111 2.60938 5.20686 2.60938 5.89062C2.60938 9.125 6.94531 11.9668 8 12.6113C9.05469 11.9668 13.3906 9.125 13.3906 5.89062C13.3912 5.29462 13.1852 4.71684 12.8078 4.25559C12.4303 3.79433 11.9047 3.47809 11.3204 3.36068C10.7361 3.24326 10.1291 3.33192 9.60282 3.61157C9.0765 3.89122 8.66332 4.34458 8.43359 4.89453C8.39828 4.9805 8.3382 5.05404 8.261 5.10579C8.18379 5.15754 8.09295 5.18517 8 5.18517C7.90706 5.18517 7.81621 5.15754 7.739 5.10579C7.6618 5.05404 7.60172 4.9805 7.56641 4.89453C7.3713 4.42476 7.041 4.02357 6.61744 3.74189C6.19388 3.46022 5.69617 3.31076 5.1875 3.3125Z" fill="#1B7FED"/>
</svg>
