<svg width="17" height="16" viewBox="0 0 17 16" fill="none" xmlns="http://www.w3.org/2000/svg">
<path d="M5.41873 1.33325H11.0187C13.1521 1.33325 14.8854 3.06659 14.8854 5.19992V10.7999C14.8854 11.8254 14.478 12.8089 13.7529 13.5341C13.0277 14.2592 12.0442 14.6666 11.0187 14.6666H5.41873C3.2854 14.6666 1.55206 12.9333 1.55206 10.7999V5.19992C1.55206 4.17442 1.95944 3.19091 2.68458 2.46577C3.40972 1.74063 4.39323 1.33325 5.41873 1.33325ZM5.2854 2.66659C4.64888 2.66659 4.03843 2.91944 3.58834 3.36953C3.13825 3.81962 2.8854 4.43007 2.8854 5.06659V10.9333C2.8854 12.2599 3.95873 13.3333 5.2854 13.3333H11.1521C11.7886 13.3333 12.399 13.0804 12.8491 12.6303C13.2992 12.1802 13.5521 11.5698 13.5521 10.9333V5.06659C13.5521 3.73992 12.4787 2.66659 11.1521 2.66659H5.2854ZM11.7187 3.66659C11.9397 3.66659 12.1517 3.75438 12.308 3.91066C12.4643 4.06694 12.5521 4.2789 12.5521 4.49992C12.5521 4.72093 12.4643 4.93289 12.308 5.08917C12.1517 5.24545 11.9397 5.33325 11.7187 5.33325C11.4977 5.33325 11.2858 5.24545 11.1295 5.08917C10.9732 4.93289 10.8854 4.72093 10.8854 4.49992C10.8854 4.2789 10.9732 4.06694 11.1295 3.91066C11.2858 3.75438 11.4977 3.66659 11.7187 3.66659ZM8.21873 4.66659C9.10278 4.66659 9.95063 5.01777 10.5758 5.6429C11.2009 6.26802 11.5521 7.11586 11.5521 7.99992C11.5521 8.88397 11.2009 9.73182 10.5758 10.3569C9.95063 10.9821 9.10278 11.3333 8.21873 11.3333C7.33467 11.3333 6.48683 10.9821 5.86171 10.3569C5.23659 9.73182 4.8854 8.88397 4.8854 7.99992C4.8854 7.11586 5.23659 6.26802 5.86171 5.6429C6.48683 5.01777 7.33467 4.66659 8.21873 4.66659ZM8.21873 5.99992C7.6883 5.99992 7.17959 6.21063 6.80452 6.5857C6.42944 6.96078 6.21873 7.46949 6.21873 7.99992C6.21873 8.53035 6.42944 9.03906 6.80452 9.41413C7.17959 9.78921 7.6883 9.99992 8.21873 9.99992C8.74916 9.99992 9.25787 9.78921 9.63294 9.41413C10.008 9.03906 10.2187 8.53035 10.2187 7.99992C10.2187 7.46949 10.008 6.96078 9.63294 6.5857C9.25787 6.21063 8.74916 5.99992 8.21873 5.99992Z" fill="white"/>
</svg>
