<svg width="32" height="32" viewBox="0 0 32 32" fill="none" xmlns="http://www.w3.org/2000/svg">
<g clip-path="url(#clip0_2_1779)">
<path d="M9.14266 3.26C10.8267 4.488 12.1013 6.21333 13.1867 7.79866L14.0373 9.04933C14.3015 9.43541 14.4224 9.9017 14.379 10.3675C14.3357 10.8333 14.1308 11.2693 13.8 11.6L11.992 13.408L12.1827 13.8133C12.6493 14.7587 13.4547 16.12 14.6667 17.3333C15.5036 18.1576 16.447 18.8661 17.472 19.44L17.9613 19.7027L18.3973 19.9187L18.592 20.008L20.3987 18.2C20.7307 17.8684 21.1686 17.6639 21.636 17.6223C22.1034 17.5806 22.5705 17.7044 22.956 17.972L24.308 18.9093C25.844 19.9893 27.448 21.22 28.6947 22.8173C28.9102 23.0945 29.0472 23.4245 29.0916 23.7728C29.1359 24.1212 29.0859 24.475 28.9467 24.7973C27.8307 27.4013 25.0067 29.6187 22.0693 29.5093L21.6693 29.488L21.3587 29.4613L21.0147 29.4213L20.64 29.3707L20.2333 29.3027L19.7987 29.2173L19.3373 29.1147L18.8493 28.9893L18.336 28.8427L17.8 28.6693C15.3387 27.8347 12.2147 26.1947 9.00932 22.9893C5.80532 19.7853 4.16532 16.6613 3.33066 14.2L3.15732 13.664L3.01066 13.1507L2.88532 12.6627L2.78132 12.2013C2.75128 12.0568 2.72328 11.9119 2.69732 11.7667L2.63066 11.36L2.57732 10.9853L2.53866 10.6413L2.51199 10.3307L2.49066 9.93066C2.38266 7.00266 4.62399 4.15866 7.21599 3.048C7.52796 2.91329 7.86959 2.862 8.20736 2.89916C8.54514 2.93633 8.86744 3.06068 9.14266 3.26ZM7.90666 5.67066C6.47732 6.41733 5.09332 8.124 5.15599 9.832L5.18266 10.2693L5.21199 10.5427L5.25066 10.8493L5.30399 11.1867L5.37199 11.556L5.45866 11.9533L5.56532 12.38L5.69332 12.832L5.84532 13.3093C5.90132 13.472 5.95999 13.6387 6.02399 13.8093L6.22932 14.332L6.46399 14.8747C7.30132 16.7173 8.66666 18.8747 10.8973 21.104C13.1267 23.3333 15.284 24.7 17.1267 25.5373L17.6693 25.772L18.192 25.9773C18.3627 26.0413 18.5293 26.1 18.692 26.156L19.1693 26.308L19.6227 26.436L20.048 26.5427L20.4453 26.6293L20.8147 26.6973L21.1533 26.7507L21.46 26.7907L21.732 26.8173L22.1693 26.844C23.8547 26.9067 25.5747 25.5307 26.3187 24.12C25.3693 23.0067 24.1907 22.0933 22.8907 21.1733L21.8933 20.4787L21.64 20.744L21.0987 21.3347L20.812 21.636C20.0307 22.432 19.1187 23.108 18.0253 22.6667L17.724 22.54L17.356 22.3747L17.1507 22.2773L16.7 22.052L16.2053 21.7853C14.9535 21.0887 13.8021 20.2252 12.7827 19.2187C11.7761 18.1992 10.9127 17.0478 10.216 15.796L9.94932 15.3027L9.72266 14.8507L9.46132 14.2773L9.33332 13.9733C8.91866 12.948 9.48932 12.0827 10.2187 11.3333L10.5173 11.04L11.26 10.356L11.5267 10.1027L10.896 9.17866C9.95866 7.81866 9.04266 6.592 7.90532 5.66933L7.90666 5.67066ZM19.9907 8.05333L20.1453 8.07066C21.1159 8.24186 22.0073 8.71592 22.6918 9.4249C23.3764 10.1339 23.8189 11.0414 23.956 12.0173C24.0049 12.3549 23.9225 12.6984 23.7258 12.9771C23.5292 13.2558 23.2332 13.4485 22.8988 13.5156C22.5644 13.5828 22.2169 13.5192 21.928 13.3379C21.639 13.1567 21.4305 12.8716 21.3453 12.5413L21.3147 12.388C21.261 12.0055 21.0977 11.6467 20.8446 11.3549C20.5914 11.0632 20.2592 10.851 19.888 10.744L19.6813 10.6973C19.3465 10.638 19.047 10.453 18.8441 10.1801C18.6412 9.9073 18.5502 9.56724 18.5897 9.22952C18.6292 8.89181 18.7963 8.58194 19.0567 8.36331C19.3171 8.14467 19.6512 8.03379 19.9907 8.05333ZM20 4C22.1217 4 24.1566 4.84285 25.6568 6.34314C27.1571 7.84343 28 9.87826 28 12C27.9996 12.3398 27.8695 12.6667 27.6362 12.9138C27.4029 13.1609 27.0841 13.3096 26.7448 13.3296C26.4055 13.3495 26.0715 13.2391 25.8109 13.021C25.5503 12.8029 25.3828 12.4935 25.3427 12.156L25.3333 12C25.3338 10.6459 24.819 9.34234 23.8933 8.35403C22.9676 7.36572 21.7006 6.76672 20.3493 6.67866L20 6.66666C19.6464 6.66666 19.3072 6.52619 19.0572 6.27614C18.8071 6.02609 18.6667 5.68695 18.6667 5.33333C18.6667 4.97971 18.8071 4.64057 19.0572 4.39052C19.3072 4.14047 19.6464 4 20 4Z" fill="#B9B9B9"/>
</g>
<defs>
<clipPath id="clip0_2_1779">
<rect width="32" height="32" fill="white"/>
</clipPath>
</defs>
</svg>
