<svg width="17" height="16" viewBox="0 0 17 16" fill="none" xmlns="http://www.w3.org/2000/svg">
<path d="M15.1921 4.00008C14.6788 4.23341 14.1254 4.38675 13.5521 4.46008C14.1388 4.10675 14.5921 3.54675 14.8054 2.87341C14.2521 3.20675 13.6388 3.44008 12.9921 3.57341C12.4654 3.00008 11.7254 2.66675 10.8854 2.66675C9.31876 2.66675 8.03876 3.94675 8.03876 5.52675C8.03876 5.75341 8.06542 5.97342 8.11209 6.18008C5.73876 6.06008 3.62542 4.92008 2.21876 3.19341C1.97209 3.61341 1.83209 4.10675 1.83209 4.62675C1.83209 5.62008 2.33209 6.50008 3.10542 7.00008C2.63209 7.00008 2.19209 6.86675 1.80542 6.66675V6.68675C1.80542 8.07341 2.79209 9.23341 4.09876 9.49341C3.67924 9.60822 3.23882 9.62419 2.81209 9.54008C2.99316 10.1084 3.34778 10.6057 3.8261 10.962C4.30442 11.3184 4.88239 11.5159 5.47876 11.5267C4.46784 12.327 3.21475 12.7596 1.92542 12.7534C1.69876 12.7534 1.47209 12.7401 1.24542 12.7134C2.51209 13.5267 4.01876 14.0001 5.63209 14.0001C10.8854 14.0001 13.7721 9.64008 13.7721 5.86008C13.7721 5.73341 13.7721 5.61341 13.7654 5.48675C14.3254 5.08675 14.8054 4.58008 15.1921 4.00008Z" fill="white"/>
</svg>
